<?xml version="1.0" encoding="utf-8"?>
<!-- Generator: Adobe Illustrator 19.2.0, SVG Export Plug-In . SVG Version: 6.00 Build 0)  -->
<svg version="1.1" id="Layer_1" xmlns="http://www.w3.org/2000/svg" xmlns:xlink="http://www.w3.org/1999/xlink" x="0px" y="0px"
	 viewBox="0 0 1000 1000" style="enable-background:new 0 0 1000 1000;" xml:space="preserve">
<style type="text/css">
	.st0{fill:#007BFF;}
	.st1{fill:#1E1E1E;}
	.st2{fill:#BCBEC0;}
	.st3{fill:#FFFFFF;}
</style>
<text transform="matrix(1 0 0 1 1098.3778 807.1328)" style="fill:#00B8A9; font-family:'MyriadPro-Regular'; font-size:90px;">YURICART ELECTRONICS</text>
<path d="M1445,553.7l70.6-110.9h71.4v3.2l-111.7,165.1V722h-62.2V611.2L1306.2,446v-3.2h71.8L1445,553.7z"/>
<path d="M1593.8,442.8v5.3l-35,51.8h63.9c31.5,0,57-25.5,57-57v0H1593.8z M1528.1,664.6v-56.2H1644c15.1,0,27.3-12.2,27.3-27.3v0
	c0-15.1-12.2-27.3-27.3-27.3h-115.9v-8.5l-46,68V722h203.2v-0.4c0-31.5-25.5-57-57-57H1528.1z"/>
<text transform="matrix(1 0 0 1 1265.3777 853)" style="font-family:'MyriadPro-Regular'; font-size:33px;">Power Your World — Anytime, Anywhere.</text>
<g>
	<g>
		<path class="st0" d="M107.6,778.2l-17.9,34.7V830H77v-17.1l-17.9-34.7h14.3l10,21.7l10-21.7H107.6z"/>
		<path class="st0" d="M125.1,778.2v31c0,3.1,0.8,5.5,2.3,7.2c1.5,1.7,3.8,2.5,6.7,2.5c3,0,5.2-0.8,6.8-2.5c1.6-1.7,2.4-4.1,2.4-7.2
			v-31h12.6v30.9c0,4.6-1,8.5-3,11.7c-2,3.2-4.6,5.6-7.9,7.2c-3.3,1.6-7,2.4-11.1,2.4c-4.1,0-7.7-0.8-11-2.4c-3.2-1.6-5.8-4-7.6-7.2
			c-1.9-3.2-2.8-7.1-2.8-11.8v-30.9H125.1z"/>
		<path class="st0" d="M191.1,830l-10.8-19.6h-3V830h-12.6v-51.8h21.2c4.1,0,7.6,0.7,10.4,2.1c2.9,1.4,5,3.4,6.5,5.9
			c1.4,2.5,2.1,5.3,2.1,8.3c0,3.4-1,6.5-2.9,9.2c-1.9,2.7-4.8,4.6-8.6,5.8l12,20.5H191.1z M177.3,801.5h7.8c2.3,0,4-0.6,5.2-1.7
			c1.2-1.1,1.7-2.7,1.7-4.8c0-2-0.6-3.5-1.7-4.6c-1.2-1.1-2.9-1.7-5.2-1.7h-7.8V801.5z"/>
		<path class="st0" d="M225.4,778.2V830h-12.6v-51.8H225.4z"/>
		<path class="st0" d="M235.8,790.3c2.2-4,5.3-7.1,9.3-9.4c4-2.2,8.5-3.4,13.5-3.4c6.1,0,11.4,1.6,15.8,4.9
			c4.4,3.2,7.3,7.7,8.8,13.3h-13.9c-1-2.2-2.5-3.8-4.4-4.9c-1.9-1.1-4-1.7-6.5-1.7c-3.9,0-7,1.4-9.4,4.1c-2.4,2.7-3.6,6.3-3.6,10.8
			c0,4.5,1.2,8.1,3.6,10.8c2.4,2.7,5.6,4.1,9.4,4.1c2.4,0,4.6-0.6,6.5-1.7c1.9-1.1,3.4-2.8,4.4-4.9h13.9c-1.5,5.6-4.4,10-8.8,13.2
			c-4.4,3.2-9.6,4.8-15.8,4.8c-5,0-9.5-1.1-13.5-3.4c-4-2.2-7-5.4-9.3-9.3c-2.2-4-3.3-8.5-3.3-13.7
			C232.4,798.9,233.5,794.3,235.8,790.3z"/>
		<path class="st0" d="M323.1,820.9h-19.3l-3.1,9.2h-13.2l18.7-51.8h14.6l18.7,51.8h-13.4L323.1,820.9z M319.8,811.1l-6.4-19
			l-6.3,19H319.8z"/>
		<path class="st0" d="M371.6,830l-10.8-19.6h-3V830h-12.6v-51.8h21.2c4.1,0,7.6,0.7,10.4,2.1c2.9,1.4,5,3.4,6.5,5.9
			c1.4,2.5,2.1,5.3,2.1,8.3c0,3.4-1,6.5-2.9,9.2c-1.9,2.7-4.8,4.6-8.6,5.8l12,20.5H371.6z M357.8,801.5h7.8c2.3,0,4-0.6,5.2-1.7
			c1.2-1.1,1.7-2.7,1.7-4.8c0-2-0.6-3.5-1.7-4.6c-1.2-1.1-2.9-1.7-5.2-1.7h-7.8V801.5z"/>
		<path class="st0" d="M430.6,778.2v10.1h-13.7V830h-12.6v-41.7h-13.7v-10.1H430.6z"/>
		<path class="st0" d="M465.2,788.3v10.5h16.9v9.7h-16.9v11.4h19.1V830h-31.7v-51.8h31.7v10.1H465.2z"/>
		<path class="st0" d="M505.1,820.3h16.5v9.7h-29.2v-51.8h12.6V820.3z"/>
		<path class="st0" d="M540.3,788.3v10.5h16.9v9.7h-16.9v11.4h19.1V830h-31.7v-51.8h31.7v10.1H540.3z"/>
		<path class="st0" d="M568.8,790.3c2.2-4,5.3-7.1,9.3-9.4c4-2.2,8.5-3.4,13.5-3.4c6.1,0,11.4,1.6,15.8,4.9
			c4.4,3.2,7.3,7.7,8.8,13.3h-13.9c-1-2.2-2.5-3.8-4.4-4.9c-1.9-1.1-4-1.7-6.5-1.7c-3.9,0-7,1.4-9.4,4.1c-2.4,2.7-3.6,6.3-3.6,10.8
			c0,4.5,1.2,8.1,3.6,10.8c2.4,2.7,5.6,4.1,9.4,4.1c2.4,0,4.6-0.6,6.5-1.7c1.9-1.1,3.4-2.8,4.4-4.9h13.9c-1.5,5.6-4.4,10-8.8,13.2
			c-4.4,3.2-9.6,4.8-15.8,4.8c-5,0-9.5-1.1-13.5-3.4c-4-2.2-7-5.4-9.3-9.3c-2.2-4-3.3-8.5-3.3-13.7
			C565.5,798.9,566.6,794.3,568.8,790.3z"/>
		<path class="st0" d="M661.1,778.2v10.1h-13.7V830h-12.6v-41.7h-13.7v-10.1H661.1z"/>
		<path class="st0" d="M693.9,830l-10.8-19.6h-3V830h-12.6v-51.8h21.2c4.1,0,7.6,0.7,10.4,2.1c2.9,1.4,5,3.4,6.5,5.9
			c1.4,2.5,2.1,5.3,2.1,8.3c0,3.4-1,6.5-2.9,9.2c-1.9,2.7-4.8,4.6-8.6,5.8l12,20.5H693.9z M680.1,801.5h7.8c2.3,0,4-0.6,5.2-1.7
			c1.2-1.1,1.7-2.7,1.7-4.8c0-2-0.6-3.5-1.7-4.6c-1.2-1.1-2.9-1.7-5.2-1.7h-7.8V801.5z"/>
		<path class="st0" d="M726.7,827.1c-4.1-2.3-7.3-5.4-9.7-9.5c-2.4-4.1-3.6-8.6-3.6-13.7s1.2-9.6,3.6-13.7c2.4-4,5.6-7.2,9.7-9.4
			c4.1-2.3,8.5-3.4,13.4-3.4c4.9,0,9.3,1.1,13.4,3.4c4.1,2.3,7.3,5.4,9.6,9.4c2.3,4,3.5,8.6,3.5,13.7s-1.2,9.6-3.5,13.7
			c-2.4,4.1-5.6,7.2-9.6,9.5c-4,2.3-8.5,3.4-13.4,3.4C735.2,830.5,730.8,829.4,726.7,827.1z M750,814.9c2.5-2.8,3.7-6.4,3.7-10.9
			c0-4.6-1.2-8.2-3.7-11c-2.5-2.7-5.8-4.1-9.9-4.1c-4.2,0-7.5,1.4-10,4.1c-2.5,2.7-3.7,6.4-3.7,11c0,4.6,1.2,8.2,3.7,11
			c2.5,2.7,5.8,4.1,10,4.1C744.2,819,747.5,817.6,750,814.9z"/>
		<path class="st0" d="M820,830h-12.6l-21.1-32v32h-12.6v-51.8h12.6l21.1,32.1v-32.1H820V830z"/>
		<path class="st0" d="M841.7,778.2V830h-12.6v-51.8H841.7z"/>
		<path class="st0" d="M852.1,790.3c2.2-4,5.3-7.1,9.3-9.4c4-2.2,8.4-3.4,13.5-3.4c6.1,0,11.4,1.6,15.8,4.9
			c4.4,3.2,7.3,7.7,8.8,13.3h-13.9c-1-2.2-2.5-3.8-4.4-4.9c-1.9-1.1-4-1.7-6.5-1.7c-3.9,0-7,1.4-9.4,4.1c-2.4,2.7-3.6,6.3-3.6,10.8
			c0,4.5,1.2,8.1,3.6,10.8c2.4,2.7,5.6,4.1,9.4,4.1c2.4,0,4.6-0.6,6.5-1.7c1.9-1.1,3.4-2.8,4.4-4.9h13.9c-1.5,5.6-4.4,10-8.8,13.2
			c-4.4,3.2-9.6,4.8-15.8,4.8c-5,0-9.5-1.1-13.5-3.4c-4-2.2-7-5.4-9.3-9.3c-2.2-4-3.3-8.5-3.3-13.7
			C848.7,798.9,849.8,794.3,852.1,790.3z"/>
		<path class="st0" d="M915.7,828.7c-3-1.2-5.4-3-7.2-5.5c-1.8-2.4-2.7-5.3-2.8-8.7h13.4c0.2,1.9,0.9,3.4,2,4.4
			c1.1,1,2.6,1.5,4.4,1.5c1.9,0,3.3-0.4,4.4-1.3c1.1-0.9,1.6-2.1,1.6-3.6c0-1.3-0.4-2.3-1.3-3.2c-0.9-0.8-1.9-1.5-3.2-2.1
			c-1.3-0.5-3-1.2-5.4-1.8c-3.3-1-6.1-2.1-8.2-3.1c-2.1-1-3.9-2.6-5.5-4.6c-1.5-2-2.3-4.6-2.3-7.9c0-4.8,1.7-8.6,5.2-11.3
			c3.5-2.7,8-4.1,13.7-4.1c5.7,0,10.3,1.4,13.8,4.1c3.5,2.7,5.4,6.5,5.6,11.4h-13.7c-0.1-1.7-0.7-3-1.8-3.9c-1.1-1-2.6-1.4-4.4-1.4
			c-1.5,0-2.8,0.4-3.7,1.2c-0.9,0.8-1.4,2-1.4,3.5c0,1.7,0.8,3,2.4,3.9c1.6,0.9,4,1.9,7.4,3c3.3,1.1,6.1,2.2,8.2,3.2
			s3.9,2.5,5.4,4.5c1.5,2,2.3,4.5,2.3,7.6c0,3-0.8,5.6-2.3,8c-1.5,2.4-3.7,4.3-6.5,5.8c-2.9,1.4-6.2,2.1-10.1,2.1
			C922.1,830.5,918.7,829.9,915.7,828.7z"/>
	</g>
	<path class="st0" d="M548.3,101.2L383.5,360.1L227.1,101.2H59.5v7.4L309,494.2V753h145.3v-6.8l-76.9-49.5c-3.3-2.2-4.7-6.2-3.5-9.9
		l-6-2.8c-2-0.9-3.6-2.6-4.4-4.7c-0.6-0.7-1-1.6-1.3-2.5l-48.1-146.7c-0.8-2.5-0.5-5.2,1-7.4c1.5-2.2,3.8-3.6,6.5-3.8l132.9-10.7
		v-14L715,108.7v-7.4H548.3z"/>
	<g>
		<path class="st1" d="M931.4,101.2H730.8v12.3L649,234.4h149.2C871.7,234.4,931.4,174.8,931.4,101.2z"/>
		<path class="st1" d="M811.2,618.9H577.4V487.6H848c35.2,0,63.8-28.6,63.8-63.8c0-17.6-7.1-33.6-18.7-45.1
			c-11.5-11.5-27.5-18.7-45.1-18.7H577.4v-19.8L470.1,499v7.9l5.9-0.5c0.2,0,0.5,0,0.7,0c2.2,0,4.2,0.8,5.8,2.3
			c0.8,0.7,1.4,1.6,1.9,2.5h1.5c-0.7-1.3-1.2-2.7-1.2-4.3v-14.6c0-4.8,3.9-8.6,8.6-8.6h15c2.4,0,4.7,1,6.2,2.7
			c1.6-1.7,3.8-2.8,6.3-2.8h15.2c4.8,0,8.6,3.9,8.6,8.6v14.6c0,4.7-3.9,8.6-8.6,8.6h-5.5v1.3h7.8c4.8,0,8.6,3.9,8.6,8.6c0,1,0,2,0,3
			c0,0.3,0,0.7,0,1c0.6,0,1.2,0,1.7,0c0.3,0,0.6,0,0.9,0c4.1,0,6.6,1.8,8,3.2c2.1,2.2,3.1,5,2.9,8.6c-0.1,1.3-0.1,2.8,0,4.3
			c0,1.8,0,3.7-0.1,5.7c-0.2,4.8-4.3,10-9.8,10.2c-2.7,0.1-5.4,0.1-7.4,0.1c-1.1,0-5.5,0-6.6,0c-4.7,0-8.6-3.9-8.6-8.6v-4.1h-4.5
			c-4.7,0-8.6-3.9-8.6-8.6v-10.2h-8c-0.5,0-0.9,0-1.4-0.1v4c1.5,1.4,2.6,3.1,3.3,4.8c11.9,27.4,22.3,51.4,31.7,73.3
			c25.1,9.2,50.7,18.6,75.3,27.7l13.9,5.1c0.6,0.2,1.2,0.5,2,0.8l1.2,0.5c3.1,1.3,5.2,4.3,5.3,7.7c0.1,3.4-1.8,6.5-4.8,8l-33.1,16.4
			c0.1,2.9-1.2,5.7-3.8,7.5L496.1,753h448.3v-0.9C944.4,678.5,884.8,618.9,811.2,618.9z"/>
	</g>
	<path class="st1" d="M333.3,536.3c48.2-3.7,95.8-7.3,143.4-10.9c0-3.6,0-6.9,0-10.5c-51.5,4.2-102.8,8.3-154.6,12.5
		c16,48.9,32,97.4,48.1,146.7c2.8-2.9,5.5-4,8.4-4v-4.8C363.5,622.2,348.4,579.4,333.3,536.3z"/>
	<path class="st1" d="M532.7,615.7c-10.6-24.7-21.3-49.3-32-73.9c-0.4-1-1.5-2.4-2.4-2.5c-2.6-0.3-5.3-0.1-8.6-0.1
		c11.1,26.7,22.1,52.9,33.2,79.5h12C534,617.9,533.3,617,532.7,615.7z"/>
	<path class="st2" d="M626.7,652.5c-29.9-11-59.9-22.1-89.9-33c-0.7-0.2-1.3-0.5-1.8-0.9h-12c-48.3,15.6-96.2,31.1-144.4,46.7v4.8
		c2.5,0,5,0.8,7.8,2.1c30.3,13.8,60.8,27.1,91.3,40.6c1.8,0.8,2.9,1.8,3.3,3.8c0.7,3.1,1.7,6.1,2.6,9.4
		c48.6-24.1,96.9-48,145.7-72.3C628.1,653.1,627.4,652.8,626.7,652.5z M554.2,686c-7.1,4.6-14.1,5.7-21.8,1.9
		c-1.3-0.6-2.8-0.9-4.2-1.3c0-0.2,0-0.5,0.1-0.7c8.7-3.9,17.4-7.8,26.2-11.7c0.5-0.2,1.2-0.4,1.7-0.2c4.5,1.1,9,2.3,14.4,3.6
		C564.5,680.7,559.1,682.9,554.2,686z"/>
	<path class="st1" d="M591.5,678.2c-36.9,24.9-73.8,49.8-110.8,74.8c-33-21.2-65.9-42.4-98.8-63.6c0.1-0.2,0.2-0.4,0.3-0.6
		c4.1,2,8.1,4,12.2,6c27.7,13.8,55.3,27.5,83,41.3c2.5,1.3,4.4,1.2,6.9-0.2c35.1-19.3,70.3-38.4,105.5-57.6c0.5-0.3,1-0.5,1.5-0.7
		C591.4,677.9,591.4,678,591.5,678.2z"/>
	<path class="st1" d="M480.9,726.6c-36.7-16.9-72.9-33.6-109.6-50.5c2.3-1.4,4.1-2.8,6.1-3.7c0.9-0.4,2.3-0.1,3.3,0.3
		c30,13.2,59.9,26.7,90,39.6c5.6,2.4,9.1,5.5,9.7,11.6C480.5,724.7,480.7,725.5,480.9,726.6z"/>
	<g>
		<path class="st0" d="M506.7,506.8c-4.7,0-8.9,0-13.3,0c0-4.9,0-9.7,0-14.6c4.8,0,9.7,0,15,0c0,4.7,0,9.3,0,14.1
			c4.3,0,8.2,0,12.5,0c0-4.8,0-9.4,0-14.2c5.2,0,10.1,0,15.2,0c0,4.8,0,9.5,0,14.6c-4.5,0-9.1,0-14.1,0c0,5,0,9.6,0,14.4
			c-5.2,0-10.1,0-15.3,0C506.7,516.5,506.7,511.9,506.7,506.8z"/>
		<path class="st0" d="M481.5,532.6c0-4.5,0-8.6,0-12.8c5.2,0,10,0,15.1,0c0,4.8,0,9.5,0,14.7c-4.4,0-8.6,0-13.1,0
			c0,4.4,0,8.4,0,12.7c-5.2,0-10.1,0-15.2,0c0-4.8,0-9.6,0-14.5C472.7,532.6,476.8,532.6,481.5,532.6z"/>
		<path class="st0" d="M536.3,552.6c0-4.3,0-8.4,0-12.7c-4.5,0-8.6,0-13.1,0c0-5,0-9.7,0-14.7c4.9,0,9.8,0,15,0
			c0,3.5,0.1,6.8,0,10.2c-0.1,1.8,0.6,2.5,2.4,2.4c2.8-0.1,5.6,0.1,8.4-0.1c2.2-0.1,2.8,0.7,2.7,2.8c-0.1,3.3,0.1,6.6-0.1,9.9
			c0,0.8-1,2.1-1.6,2.1C545.6,552.7,541.1,552.6,536.3,552.6z"/>
	</g>
	<path class="st1" d="M773.7,889.9H230.2c-9,0-16.3-7.3-16.3-16.3V862c0-9,7.3-16.3,16.3-16.3h543.5c9,0,16.3,7.3,16.3,16.3v11.6
		C790,882.6,782.7,889.9,773.7,889.9z"/>
	<g>
		<path class="st3" d="M244.4,864.2c-0.6,0.8-1.4,1.5-2.5,2c-1.1,0.5-2.4,0.8-3.9,0.8h-3.4l-1.3,7.5h-3l3.3-18.6h6.4
			c1.9,0,3.3,0.4,4.3,1.2c1,0.8,1.4,1.9,1.4,3.2c0,0.2,0,0.6-0.1,1C245.4,862.5,245,863.4,244.4,864.2z M241.2,863.8
			c0.7-0.6,1.1-1.3,1.2-2.3c0.1-0.3,0.1-0.5,0.1-0.8c0-0.7-0.2-1.3-0.7-1.8c-0.5-0.4-1.2-0.6-2.2-0.6h-3.4l-1.1,6.3h3.4
			C239.6,864.7,240.5,864.4,241.2,863.8z"/>
		<path class="st3" d="M249.3,874c-0.9-0.5-1.7-1.2-2.2-2.2c-0.5-0.9-0.8-2-0.8-3.2c0-1.7,0.4-3.2,1.2-4.5s1.8-2.5,3.2-3.3
			c1.4-0.8,2.9-1.2,4.6-1.2c1.2,0,2.4,0.3,3.3,0.8c1,0.5,1.7,1.3,2.3,2.2c0.5,0.9,0.8,2,0.8,3.2c0,1.7-0.4,3.2-1.2,4.5
			c-0.8,1.4-1.9,2.5-3.3,3.2c-1.4,0.8-2.9,1.2-4.6,1.2C251.4,874.8,250.3,874.6,249.3,874z M255.8,871.4c0.8-0.6,1.5-1.3,2-2.3
			c0.5-1,0.7-2,0.7-3.1c0-1.2-0.3-2.2-1-2.8c-0.7-0.7-1.6-1-2.6-1c-1,0-2,0.3-2.8,0.9c-0.8,0.6-1.4,1.4-1.9,2.3
			c-0.5,1-0.7,2-0.7,3.1c0,1.2,0.3,2.1,1,2.8c0.6,0.7,1.5,1,2.5,1C254,872.3,254.9,872,255.8,871.4z"/>
		<path class="st3" d="M285.6,859.8l-7.2,14.7h-3.2l-1-10.9l-4.9,10.9h-3.2l-2-14.7h3.1l1,11.8l5.2-11.8h3.2l0.9,11.8l5.1-11.8
			H285.6z"/>
		<path class="st3" d="M298.7,861.2c1.1,1,1.6,2.4,1.6,4.2c0,0.4,0,0.9-0.1,1.5c-0.1,0.4-0.2,0.9-0.4,1.4h-11.3c0,0.1,0,0.3,0,0.6
			c0,1.1,0.3,1.9,1,2.5c0.6,0.6,1.5,0.9,2.6,0.9c1.7,0,2.9-0.7,3.8-2.1h3.3c-0.7,1.4-1.7,2.5-3,3.3c-1.3,0.9-2.8,1.3-4.6,1.3
			c-1.2,0-2.3-0.2-3.2-0.7c-0.9-0.5-1.6-1.2-2.2-2.1c-0.5-0.9-0.8-2-0.8-3.2c0-0.5,0.1-1.1,0.2-1.7c0.3-1.5,0.8-2.8,1.6-4
			c0.8-1.2,1.8-2,3.1-2.7c1.2-0.6,2.6-0.9,4-0.9C296.1,859.6,297.6,860.1,298.7,861.2z M297.2,865.4c0-1-0.3-1.8-1-2.3
			c-0.7-0.6-1.5-0.9-2.5-0.9c-1.1,0-2.1,0.3-2.9,1c-0.9,0.7-1.5,1.6-1.8,2.8h8.2C297.2,865.7,297.2,865.5,297.2,865.4z"/>
		<path class="st3" d="M309.1,860.4c0.8-0.5,1.8-0.7,2.8-0.7l-0.6,3.2h-0.8c-1.2,0-2.1,0.3-2.8,0.9c-0.7,0.6-1.2,1.6-1.5,3l-1.4,7.9
			h-3l2.6-14.7h3l-0.5,2.6C307.6,861.6,308.3,860.9,309.1,860.4z"/>
		<path class="st3" d="M337.1,856l-8.2,11.8l-1.2,6.7h-3l1.2-6.7l-4.1-11.8h3.4l2.7,9.1l5.9-9.1H337.1z"/>
		<path class="st3" d="M339.4,874c-0.9-0.5-1.7-1.2-2.2-2.2c-0.5-0.9-0.8-2-0.8-3.2c0-1.7,0.4-3.2,1.2-4.5s1.8-2.5,3.2-3.3
			c1.4-0.8,2.9-1.2,4.6-1.2c1.2,0,2.4,0.3,3.3,0.8c1,0.5,1.7,1.3,2.3,2.2c0.5,0.9,0.8,2,0.8,3.2c0,1.7-0.4,3.2-1.2,4.5
			c-0.8,1.4-1.9,2.5-3.3,3.2c-1.4,0.8-2.9,1.2-4.6,1.2C341.5,874.8,340.4,874.6,339.4,874z M345.9,871.4c0.8-0.6,1.5-1.3,2-2.3
			c0.5-1,0.7-2,0.7-3.1c0-1.2-0.3-2.2-1-2.8c-0.7-0.7-1.6-1-2.6-1c-1,0-2,0.3-2.8,0.9c-0.8,0.6-1.4,1.4-1.9,2.3
			c-0.5,1-0.7,2-0.7,3.1c0,1.2,0.3,2.1,1,2.8c0.6,0.7,1.5,1,2.5,1C344.1,872.3,345,872,345.9,871.4z"/>
		<path class="st3" d="M369.3,859.8l-2.6,14.7h-3l0.3-1.7c-0.6,0.6-1.3,1.1-2.1,1.4c-0.8,0.3-1.7,0.5-2.6,0.5
			c-1.6,0-2.8-0.4-3.7-1.3c-0.9-0.8-1.4-2-1.4-3.6c0-0.4,0-0.9,0.1-1.5l1.5-8.7h3l-1.4,8.2c-0.1,0.5-0.1,0.9-0.1,1.1
			c0,1,0.3,1.7,0.8,2.2c0.5,0.5,1.3,0.8,2.3,0.8c1.1,0,2.1-0.3,2.9-1c0.8-0.7,1.3-1.6,1.6-2.9l1.5-8.4H369.3z"/>
		<path class="st3" d="M378,860.4c0.8-0.5,1.8-0.7,2.8-0.7l-0.6,3.2h-0.8c-1.2,0-2.1,0.3-2.8,0.9c-0.7,0.6-1.2,1.6-1.5,3l-1.4,7.9
			h-3l2.6-14.7h3l-0.5,2.6C376.5,861.6,377.2,860.9,378,860.4z"/>
		<path class="st3" d="M416.5,856l-8.8,18.6h-3.4l-1.4-14.1l-6.6,14.1l-3.4,0l-2-18.6h3.2l1.2,15.1L402,856h3.4l1.2,15.1l6.5-15.1
			H416.5z"/>
		<path class="st3" d="M418.8,874c-0.9-0.5-1.7-1.2-2.2-2.2c-0.5-0.9-0.8-2-0.8-3.2c0-1.7,0.4-3.2,1.2-4.5s1.8-2.5,3.2-3.3
			c1.4-0.8,2.9-1.2,4.6-1.2c1.2,0,2.4,0.3,3.3,0.8c1,0.5,1.7,1.3,2.3,2.2c0.5,0.9,0.8,2,0.8,3.2c0,1.7-0.4,3.2-1.2,4.5
			c-0.8,1.4-1.9,2.5-3.3,3.2c-1.4,0.8-2.9,1.2-4.6,1.2C420.9,874.8,419.8,874.6,418.8,874z M425.3,871.4c0.8-0.6,1.5-1.3,2-2.3
			c0.5-1,0.7-2,0.7-3.1c0-1.2-0.3-2.2-1-2.8c-0.7-0.7-1.6-1-2.6-1c-1,0-2,0.3-2.8,0.9c-0.8,0.6-1.4,1.4-1.9,2.3
			c-0.5,1-0.7,2-0.7,3.1c0,1.2,0.3,2.1,1,2.8c0.6,0.7,1.5,1,2.5,1C423.5,872.3,424.4,872,425.3,871.4z"/>
		<path class="st3" d="M440.1,860.4c0.8-0.5,1.8-0.7,2.8-0.7l-0.6,3.2h-0.8c-1.2,0-2.1,0.3-2.8,0.9c-0.7,0.6-1.2,1.6-1.5,3l-1.4,7.9
			h-3l2.6-14.7h3l-0.5,2.6C438.5,861.6,439.3,860.9,440.1,860.4z"/>
		<path class="st3" d="M449.6,854.8l-3.5,19.8h-3l3.5-19.8H449.6z"/>
		<path class="st3" d="M452,863.2c0.8-1.1,1.8-2,3-2.7c1.2-0.6,2.4-1,3.7-1c1,0,1.9,0.2,2.7,0.6c0.9,0.4,1.5,1,2,1.7l1.3-7.1h3.1
			l-3.5,19.8h-3.1l0.4-2.2c-0.6,0.7-1.4,1.3-2.4,1.8c-1,0.5-2,0.7-3.1,0.7c-1.1,0-2.1-0.2-3-0.7c-0.9-0.5-1.6-1.2-2-2.1
			c-0.5-0.9-0.7-2-0.7-3.2c0-0.5,0.1-1.1,0.2-1.6C450.6,865.7,451.2,864.4,452,863.2z M462.5,866.1c0-1.2-0.4-2.1-1.1-2.8
			c-0.7-0.7-1.6-1-2.6-1c-0.8,0-1.6,0.2-2.3,0.6c-0.7,0.4-1.4,0.9-2,1.7c-0.6,0.7-0.9,1.6-1.1,2.6c-0.1,0.3-0.1,0.7-0.1,1.1
			c0,1.2,0.4,2.2,1.1,2.9c0.7,0.7,1.6,1.1,2.6,1.1c0.8,0,1.6-0.2,2.3-0.6c0.7-0.4,1.4-1,2-1.7s0.9-1.6,1.1-2.7
			C462.5,866.9,462.5,866.5,462.5,866.1z"/>
		<path class="st3" d="M498.5,863.6l-0.5,2.6H478l0.5-2.6H498.5z"/>
		<path class="st3" d="M520.8,870.8H513l-2,3.8h-3.2l9.9-18.6h3.5l3.4,18.6h-3.2L520.8,870.8z M520.4,868.4l-1.5-8.7l-4.6,8.7H520.4
			z"/>
		<path class="st3" d="M541.4,860.9c0.9,0.8,1.4,2,1.4,3.6c0,0.4,0,0.9-0.1,1.5l-1.6,8.7h-3l1.5-8.2c0.1-0.5,0.1-0.9,0.1-1.1
			c0-1-0.3-1.7-0.8-2.2c-0.5-0.5-1.3-0.8-2.3-0.8c-1.2,0-2.1,0.4-2.9,1.1c-0.8,0.7-1.3,1.7-1.5,3v-0.1l-1.5,8.3h-3l2.6-14.7h3
			l-0.3,1.7c0.6-0.6,1.3-1.1,2.2-1.4c0.8-0.3,1.7-0.5,2.6-0.5C539.2,859.6,540.5,860,541.4,860.9z"/>
		<path class="st3" d="M549.2,859.8l2.2,11.2l6.3-11.2h3.2L548,881.5h-3.2l4.3-7.2l-3.3-14.5H549.2z"/>
		<path class="st3" d="M564.8,870.5c0,0.3-0.1,0.4-0.1,0.5c0,0.4,0.1,0.6,0.3,0.8c0.2,0.2,0.6,0.3,1.1,0.3h1.9l-0.5,2.5h-2.4
			c-1.2,0-2.1-0.2-2.7-0.7c-0.6-0.5-0.9-1.2-0.9-2.3c0-0.4,0-0.8,0.1-1.1l1.4-8.2h-1.7l0.4-2.5h1.8l0.6-3.7h3.1l-0.6,3.7h3.6
			l-0.4,2.5h-3.6L564.8,870.5z"/>
		<path class="st3" d="M576.1,859.8l-2.6,14.7h-3l2.6-14.7H576.1z M573.8,857.4c-0.3-0.3-0.5-0.7-0.5-1.1c0-0.6,0.2-1.2,0.7-1.6
			c0.5-0.5,1-0.7,1.6-0.7c0.5,0,0.9,0.2,1.2,0.5c0.3,0.3,0.4,0.7,0.4,1.1c0,0.6-0.2,1.2-0.7,1.6c-0.5,0.5-1,0.7-1.6,0.7
			C574.5,857.9,574.1,857.7,573.8,857.4z"/>
		<path class="st3" d="M601.7,860.9c0.9,0.8,1.4,2,1.4,3.6c0,0.4,0,0.9-0.1,1.5l-1.6,8.7h-3l1.5-8.2c0.1-0.5,0.1-0.9,0.1-1.1
			c0-1-0.3-1.7-0.8-2.2c-0.5-0.5-1.3-0.8-2.3-0.8c-1.2,0-2.1,0.4-2.9,1.1c-0.8,0.7-1.3,1.7-1.5,3l-1.5,8.2h-3l1.5-8.2
			c0.1-0.5,0.1-0.9,0.1-1.1c0-1-0.3-1.7-0.8-2.2c-0.5-0.5-1.3-0.8-2.3-0.8c-1.2,0-2.1,0.4-2.9,1.1c-0.8,0.7-1.3,1.7-1.5,3v-0.1
			l-1.5,8.3h-3l2.6-14.7h3l-0.3,1.7c0.6-0.6,1.3-1.1,2.1-1.4c0.8-0.3,1.7-0.5,2.6-0.5c1.2,0,2.2,0.3,3,0.7c0.8,0.5,1.4,1.2,1.8,2.2
			c0.6-0.9,1.4-1.6,2.4-2.1c1-0.5,2.1-0.8,3.2-0.8C599.5,859.6,600.8,860,601.7,860.9z"/>
		<path class="st3" d="M618.7,861.2c1.1,1,1.6,2.4,1.6,4.2c0,0.4,0,0.9-0.1,1.5c-0.1,0.4-0.2,0.9-0.4,1.4h-11.3c0,0.1,0,0.3,0,0.6
			c0,1.1,0.3,1.9,1,2.5c0.6,0.6,1.5,0.9,2.6,0.9c1.7,0,2.9-0.7,3.8-2.1h3.3c-0.7,1.4-1.7,2.5-3,3.3c-1.3,0.9-2.8,1.3-4.6,1.3
			c-1.2,0-2.3-0.2-3.2-0.7s-1.6-1.2-2.2-2.1c-0.5-0.9-0.8-2-0.8-3.2c0-0.5,0.1-1.1,0.2-1.7c0.3-1.5,0.8-2.8,1.6-4
			c0.8-1.2,1.8-2,3.1-2.7c1.2-0.6,2.6-0.9,4-0.9C616.1,859.6,617.6,860.1,618.7,861.2z M617.2,865.4c0-1-0.3-1.8-1-2.3
			c-0.7-0.6-1.5-0.9-2.5-0.9c-1.1,0-2.1,0.3-2.9,1c-0.9,0.7-1.5,1.6-1.8,2.8h8.2C617.2,865.7,617.2,865.5,617.2,865.4z"/>
		<path class="st3" d="M625.8,870.9l-4.5,7.4h-2l3.2-7.4H625.8z"/>
		<path class="st3" d="M647.7,870.8h-7.8l-2,3.8h-3.2l9.9-18.6h3.5l3.4,18.6h-3.2L647.7,870.8z M647.3,868.4l-1.5-8.7l-4.6,8.7
			H647.3z"/>
		<path class="st3" d="M668.2,860.9c0.9,0.8,1.4,2,1.4,3.6c0,0.4,0,0.9-0.1,1.5l-1.6,8.7h-3l1.5-8.2c0.1-0.5,0.1-0.9,0.1-1.1
			c0-1-0.3-1.7-0.8-2.2c-0.5-0.5-1.3-0.8-2.3-0.8c-1.2,0-2.1,0.4-2.9,1.1c-0.8,0.7-1.3,1.7-1.5,3v-0.1l-1.5,8.3h-3l2.6-14.7h3
			l-0.3,1.7c0.6-0.6,1.3-1.1,2.2-1.4c0.8-0.3,1.7-0.5,2.6-0.5C666.1,859.6,667.3,860,668.2,860.9z"/>
		<path class="st3" d="M676.1,859.8l2.2,11.2l6.3-11.2h3.2l-12.8,21.7h-3.2l4.3-7.2l-3.3-14.5H676.1z"/>
		<path class="st3" d="M709.8,859.8l-7.2,14.7h-3.2l-1-10.9l-4.9,10.9h-3.2l-2-14.7h3.1l1,11.8l5.2-11.8h3.2l0.9,11.8l5.1-11.8
			H709.8z"/>
		<path class="st3" d="M723.3,860.9c0.9,0.8,1.3,2,1.3,3.5c0,0.4,0,0.9-0.1,1.5l-1.6,8.7h-3l1.5-8.2c0.1-0.5,0.1-0.9,0.1-1.1
			c0-1-0.3-1.7-0.8-2.2c-0.5-0.5-1.3-0.8-2.3-0.8c-1.2,0-2.1,0.4-2.9,1.1c-0.8,0.7-1.3,1.7-1.5,3v-0.1l-1.5,8.3h-3l3.5-19.8h3
			l-1.2,6.8c0.6-0.6,1.4-1.1,2.2-1.4c0.9-0.3,1.8-0.5,2.7-0.5C721.2,859.6,722.4,860,723.3,860.9z"/>
		<path class="st3" d="M740.2,861.2c1.1,1,1.6,2.4,1.6,4.2c0,0.4,0,0.9-0.1,1.5c-0.1,0.4-0.2,0.9-0.4,1.4h-11.3c0,0.1,0,0.3,0,0.6
			c0,1.1,0.3,1.9,1,2.5c0.6,0.6,1.5,0.9,2.6,0.9c1.7,0,2.9-0.7,3.8-2.1h3.3c-0.7,1.4-1.7,2.5-3,3.3c-1.3,0.9-2.8,1.3-4.6,1.3
			c-1.2,0-2.3-0.2-3.2-0.7c-0.9-0.5-1.6-1.2-2.2-2.1c-0.5-0.9-0.8-2-0.8-3.2c0-0.5,0.1-1.1,0.2-1.7c0.3-1.5,0.8-2.8,1.6-4
			c0.8-1.2,1.8-2,3.1-2.7c1.2-0.6,2.6-0.9,4-0.9C737.6,859.6,739.1,860.1,740.2,861.2z M738.7,865.4c0-1-0.3-1.8-1-2.3
			c-0.7-0.6-1.5-0.9-2.5-0.9c-1.1,0-2.1,0.3-2.9,1c-0.9,0.7-1.5,1.6-1.8,2.8h8.2C738.7,865.7,738.7,865.5,738.7,865.4z"/>
		<path class="st3" d="M750.6,860.4c0.8-0.5,1.8-0.7,2.8-0.7l-0.6,3.2h-0.8c-1.2,0-2.1,0.3-2.8,0.9c-0.7,0.6-1.2,1.6-1.5,3l-1.4,7.9
			h-3l2.6-14.7h3l-0.5,2.6C749.1,861.6,749.8,860.9,750.6,860.4z"/>
		<path class="st3" d="M766.9,861.2c1.1,1,1.6,2.4,1.6,4.2c0,0.4,0,0.9-0.1,1.5c-0.1,0.4-0.2,0.9-0.4,1.4h-11.3c0,0.1,0,0.3,0,0.6
			c0,1.1,0.3,1.9,1,2.5c0.6,0.6,1.5,0.9,2.6,0.9c1.7,0,2.9-0.7,3.8-2.1h3.3c-0.7,1.4-1.7,2.5-3,3.3c-1.3,0.9-2.8,1.3-4.6,1.3
			c-1.2,0-2.3-0.2-3.2-0.7s-1.6-1.2-2.2-2.1c-0.5-0.9-0.8-2-0.8-3.2c0-0.5,0.1-1.1,0.2-1.7c0.3-1.5,0.8-2.8,1.6-4
			c0.8-1.2,1.8-2,3.1-2.7c1.2-0.6,2.6-0.9,4-0.9C764.4,859.6,765.8,860.1,766.9,861.2z M765.5,865.4c0-1-0.3-1.8-1-2.3
			c-0.7-0.6-1.5-0.9-2.5-0.9c-1.1,0-2.1,0.3-2.9,1c-0.9,0.7-1.5,1.6-1.8,2.8h8.2C765.4,865.7,765.5,865.5,765.5,865.4z"/>
		<path class="st3" d="M770.1,874.3c-0.3-0.3-0.5-0.7-0.5-1.1c0-0.6,0.2-1.2,0.7-1.6c0.5-0.5,1-0.7,1.6-0.7c0.5,0,0.9,0.2,1.2,0.5
			c0.3,0.3,0.4,0.7,0.4,1.1c0,0.6-0.2,1.2-0.7,1.6c-0.5,0.5-1,0.7-1.6,0.7C770.8,874.8,770.4,874.6,770.1,874.3z"/>
	</g>
	<g>
		<g>
			<g>
				<path class="st1" d="M206.6,856.7c-0.4,1.2-0.8,2.4-1.1,3.6H59.5v-3.6H206.6z"/>
			</g>
			<g>
				<path class="st1" d="M205,862.9c-0.2,1.2-0.3,2.4-0.3,3.6H59.5v-3.6H205z"/>
			</g>
			<g>
				<path class="st1" d="M205,872.6H59.5V869h145.2C204.7,870.2,204.8,871.4,205,872.6z"/>
			</g>
			<g>
				<path class="st1" d="M206.6,878.8H59.5v-3.6h146.1C205.8,876.4,206.2,877.6,206.6,878.8z"/>
			</g>
		</g>
		<g>
			<g>
				<path class="st1" d="M944.7,856.7v3.6H798.3c-0.3-1.2-0.7-2.4-1.1-3.6H944.7z"/>
			</g>
			<g>
				<path class="st1" d="M944.7,862.9v3.6H799.2c0-1.2-0.2-2.4-0.3-3.6H944.7z"/>
			</g>
			<g>
				<path class="st1" d="M944.7,869v3.6H798.8c0.2-1.2,0.3-2.4,0.3-3.6H944.7z"/>
			</g>
			<g>
				<path class="st1" d="M944.7,875.2v3.6H797.2c0.4-1.2,0.8-2.4,1.1-3.6H944.7z"/>
			</g>
		</g>
	</g>
</g>
</svg>
